name D:\school\WTK\thesis\model\3dpredictsim\Results\MidTarsalJoint\Fal_s1_bCst_PF_Natali2010_ls150_MT_k100_d050_MTP_T5_ig24.mot
datacolumns 128
datarows 4
range 0.57601431 0.61057517
endheader
time	pelvis_tilt	pelvis_list	pelvis_rotation	pelvis_tx	pelvis_ty	pelvis_tz	hip_flexion_l	hip_adduction_l	hip_rotation_l	hip_flexion_r	hip_adduction_r	hip_rotation_r	knee_angle_l	knee_angle_r	ankle_angle_l	ankle_angle_r	subtalar_angle_l	subtalar_angle_r	mtj_angle_l	mtj_angle_r	mtp_angle_l	mtp_angle_r	lumbar_extension	lumbar_bending	lumbar_rotation	arm_flex_l	arm_add_l	arm_rot_l	arm_flex_r	arm_add_r	arm_rot_r	elbow_flex_l	elbow_flex_r	pro_sup_l	pro_sup_r	glut_med1_l/activation	glut_med2_l/activation	glut_med3_l/activation	glut_min1_l/activation	glut_min2_l/activation	glut_min3_l/activation	semimem_l/activation	semiten_l/activation	bifemlh_l/activation	bifemsh_l/activation	sar_l/activation	add_long_l/activation	add_brev_l/activation	add_mag1_l/activation	add_mag2_l/activation	add_mag3_l/activation	tfl_l/activation	pect_l/activation	grac_l/activation	glut_max1_l/activation	glut_max2_l/activation	glut_max3_l/activation	iliacus_l/activation	psoas_l/activation	quad_fem_l/activation	gem_l/activation	peri_l/activation	rect_fem_l/activation	vas_med_l/activation	vas_int_l/activation	vas_lat_l/activation	med_gas_l/activation	lat_gas_l/activation	soleus_l/activation	tib_post_l/activation	flex_dig_l/activation	flex_hal_l/activation	tib_ant_l/activation	per_brev_l/activation	per_long_l/activation	per_tert_l/activation	ext_dig_l/activation	ext_hal_l/activation	ercspn_l/activation	intobl_l/activation	extobl_l/activation	glut_med1_r/activation	glut_med2_r/activation	glut_med3_r/activation	glut_min1_r/activation	glut_min2_r/activation	glut_min3_r/activation	semimem_r/activation	semiten_r/activation	bifemlh_r/activation	bifemsh_r/activation	sar_r/activation	add_long_r/activation	add_brev_r/activation	add_mag1_r/activation	add_mag2_r/activation	add_mag3_r/activation	tfl_r/activation	pect_r/activation	grac_r/activation	glut_max1_r/activation	glut_max2_r/activation	glut_max3_r/activation	iliacus_r/activation	psoas_r/activation	quad_fem_r/activation	gem_r/activation	peri_r/activation	rect_fem_r/activation	vas_med_r/activation	vas_int_r/activation	vas_lat_r/activation	med_gas_r/activation	lat_gas_r/activation	soleus_r/activation	tib_post_r/activation	flex_dig_r/activation	flex_hal_r/activation	tib_ant_r/activation	per_brev_r/activation	per_long_r/activation	per_tert_r/activation	ext_dig_r/activation	ext_hal_r/activation	ercspn_r/activation	intobl_r/activation	extobl_r/activation	
          0.57601431	         -2.92506660	          2.77106816	         -6.28767022	          0.72001789	          0.91522036	          0.00097219	         28.72746917	          4.40047016	         -0.65319713	        -16.33721260	         -2.43746423	          6.18726213	        -11.90582037	        -12.05048842	          3.79443690	         -5.67651930	         -6.98586552	         12.03648470	         -0.46510599	         10.15775195	          1.29610597	          3.34034345	         -1.57118305	         -1.02570462	          2.36105664	         -7.43758907	        -13.54143799	          5.15340231	          4.75510563	        -13.46704818	         16.86346937	         16.56119011	         38.32425568	         86.51662706	         86.51662706	          0.24200326	          0.05000004	          0.23974347	          0.05000206	          0.05000014	          0.05000013	          0.17180238	          0.05000021	          0.06807007	          0.05000006	          0.05000048	          0.10088564	          0.22203383	          0.18485228	          0.15361560	          0.12728303	          0.05000032	          0.05960175	          0.11014388	          0.05000015	          0.05000025	          0.11237078	          0.05408245	          0.05000064	          0.42562794	          0.13587455	          0.13855508	          0.05960029	          0.14579867	          0.14605467	          0.12559758	          0.05709904	          0.05929128	          0.05693215	          0.05960022	          0.05000214	          0.05000178	          0.44763124	          0.27294987	          0.16438680	          0.26267096	          0.52812529	          0.06945849	          0.05000002	          0.12104358	          0.08514751	          0.27112894	          0.08468492	          0.05960093	          0.23179535	          0.16858311	          0.08889035	          0.05000097	          0.05000029	          0.05000028	          0.05000009	          0.08789641	          0.08796033	          0.05959998	          0.05959989	          0.05235438	          0.05003823	          0.25610063	          0.05960069	          0.05000211	          0.05000369	          0.05000306	          0.05000376	          0.32421847	          0.56726651	          0.05184200	          0.05000098	          0.05000024	          0.19463529	          0.09646066	          0.08429878	          0.10059943	          0.23923018	          0.33506193	          0.33773822	          0.22900531	          0.19877467	          0.27086954	          0.05000001	          0.05386522	          0.19545710	          0.05000008	          0.05000002	          0.05000009	          0.05000117	          0.05960021	          0.05960011	
          0.58753460	         -2.91882430	          2.87983820	         -6.53612135	          0.73765559	          0.91415312	          0.00076087	         27.93327585	          4.68480279	         -0.36436371	        -16.11215232	         -2.76020300	          5.95495157	        -12.38138586	        -14.11554208	          3.16189806	         -6.34230452	         -7.38647402	         12.85971442	         -0.53678136	          8.96191320	          1.27111008	          4.90106334	         -1.35800051	         -1.25021564	          2.41514843	         -8.33409610	        -13.54615014	          5.10377146	          4.39182878	        -13.47543627	         17.11192098	         16.20162731	         39.45308871	         86.51662706	         86.51662706	          0.30403693	          0.26201264	          0.32850124	          0.14201660	          0.17652606	          0.15294302	          0.14412895	          0.08069442	          0.05710563	          0.08468360	          0.05000128	          0.08463530	          0.18626927	          0.15507690	          0.12887181	          0.14206727	          0.05000029	          0.05000153	          0.09240283	          0.19978276	          0.15387047	          0.12247667	          0.05000004	          0.05000006	          0.35706904	          0.11398837	          0.11623721	          0.05000008	          0.12231389	          0.12252868	          0.10536673	          0.05000003	          0.05000007	          0.05000000	          0.05000002	          0.05000007	          0.05000009	          0.56913681	          0.33633725	          0.18804518	          0.55159560	          0.56019629	          0.21532598	          0.07160759	          0.10789155	          0.07143219	          0.29125309	          0.07104414	          0.05000064	          0.34593279	          0.14142832	          0.07457219	          0.05000133	          0.05000010	          0.05000009	          0.05000018	          0.07373901	          0.07379216	          0.05000014	          0.05000018	          0.05000034	          0.05000023	          0.27459149	          0.05000150	          0.05000037	          0.05000135	          0.05000072	          0.05000032	          0.28613959	          0.53700502	          0.05000008	          0.05000073	          0.05000102	          0.17097014	          0.08092328	          0.07072040	          0.13556888	          0.20069566	          0.28109111	          0.28333631	          0.19211783	          0.16675674	          0.22723875	          0.05000001	          0.10016829	          0.19859154	          0.05000010	          0.05000006	          0.05000012	          0.06161816	          0.05000000	          0.05000002	
          0.59905488	         -2.91118602	          2.97265951	         -6.74525281	          0.75530462	          0.91330913	          0.00051866	         27.15383581	          4.96295184	         -0.09054560	        -15.76889824	         -3.06078033	          5.74037412	        -12.89940867	        -16.31244623	          2.58479270	         -7.13358482	         -7.79457974	         13.60976150	         -0.59911917	          7.48992976	          1.24972365	          6.60482451	         -1.15392751	         -1.46635852	          2.45969411	         -9.18709855	        -13.54495432	          5.10500072	          4.00293708	        -13.48683591	         17.32352542	         15.85732380	         40.49956229	         86.51662706	         86.51662706	          0.39867843	          0.35475310	          0.42194410	          0.16568262	          0.14809239	          0.22779851	          0.12091317	          0.08116420	          0.06889517	          0.07104305	          0.05000023	          0.07100259	          0.15626680	          0.19436762	          0.19283635	          0.16708596	          0.05000020	          0.05025199	          0.09768457	          0.25073546	          0.19534437	          0.16218368	          0.05000010	          0.05000009	          0.29955342	          0.09562755	          0.17985856	          0.05000005	          0.19783760	          0.20040712	          0.16919318	          0.05000003	          0.05000008	          0.05000001	          0.05000004	          0.05000059	          0.05000033	          0.64749667	          0.28216101	          0.15775540	          0.46274641	          0.57658973	          0.27437638	          0.08775408	          0.09051270	          0.05992610	          0.27922822	          0.05960057	          0.05000005	          0.29021116	          0.11864750	          0.06256034	          0.05000147	          0.05000018	          0.05000016	          0.05000010	          0.06186152	          0.13186282	          0.05203377	          0.05000263	          0.05000259	          0.05000116	          0.23036155	          0.07104871	          0.05000077	          0.05000145	          0.05000092	          0.05000057	          0.24004909	          0.49041545	          0.05000014	          0.05000041	          0.05000008	          0.14343076	          0.10042389	          0.10688428	          0.11373243	          0.16836817	          0.23581375	          0.23769729	          0.16117206	          0.13989612	          0.19063583	          0.08330582	          0.14384747	          0.16812203	          0.05000023	          0.12824428	          0.05000039	          0.08418210	          0.05000001	          0.05000002	
          0.61057517	         -2.90246446	          3.05367367	         -6.91828754	          0.77283257	          0.91277332	          0.00025416	         26.41619418	          5.24477190	          0.18042242	        -15.29201273	         -3.33777714	          5.53614120	        -13.47926392	        -18.64642549	          2.01669082	         -7.97453361	         -8.20197126	         14.26820656	         -0.63006527	          5.74865107	          1.26037526	          8.16007518	         -0.96406283	         -1.67772153	          2.49467806	         -9.96956679	        -13.53788190	          5.15675543	          3.61855415	        -13.49483828	         17.52013877	         15.51074268	         41.42758896	         86.51662706	         86.51662706	          0.47762063	          0.44639653	          0.48370480	          0.15252020	          0.23167333	          0.25906001	          0.10143688	          0.08897087	          0.06844991	          0.05959976	          0.05000023	          0.05956576	          0.13109586	          0.16306105	          0.21484624	          0.19235231	          0.05000016	          0.05000100	          0.08195302	          0.30743572	          0.23957976	          0.19986293	          0.05000004	          0.05000004	          0.25130225	          0.08022426	          0.15088786	          0.05000004	          0.28081752	          0.28389760	          0.23736416	          0.05000002	          0.05000007	          0.05000000	          0.11755589	          0.05000283	          0.05000121	          0.70082380	          0.23671135	          0.13234464	          0.38820863	          0.56541449	          0.28769676	          0.09407502	          0.07593318	          0.05027338	          0.23425108	          0.05000032	          0.05000003	          0.24346497	          0.09953616	          0.05248335	          0.05000150	          0.05000013	          0.05000014	          0.05000006	          0.05189723	          0.15346593	          0.13114405	          0.05000056	          0.05000173	          0.08539490	          0.22139038	          0.05960506	          0.05000026	          0.05000095	          0.05000062	          0.05000037	          0.20138268	          0.44143799	          0.05000005	          0.05000025	          0.05000008	          0.12032735	          0.10094428	          0.10094427	          0.10094427	          0.14124790	          0.19782955	          0.19940969	          0.13521095	          0.11736214	          0.15992882	          0.17453408	          0.12067710	          0.14104145	          0.28778374	          0.19715534	          0.14998686	          0.10667548	          0.05000001	          0.05000002	
